<svg xmlns="http://www.w3.org/2000/svg" viewBox="0 0 360 72" width="360" height="72">
  <defs>
    <linearGradient id="bg5" x1="0" y1="0" x2="1" y2="1">
      <stop offset="0%" stop-color="#1a1012"/>
      <stop offset="100%" stop-color="#0d0a0b"/>
    </linearGradient>
  </defs>
  <rect x="0" y="0" width="72" height="72" rx="16" fill="url(#bg5)"/>
  <circle cx="33" cy="18" r="1.2" fill="#E8735A" opacity="0.9"/>
  <circle cx="36" cy="15.5" r="1.5" fill="#F28B6E" opacity="1"/>
  <circle cx="39" cy="17.6" r="1.05" fill="#D4533B" opacity="0.85"/>
  <circle cx="34.5" cy="21.1" r="1.65" fill="#E8735A" opacity="0.95"/>
  <circle cx="38.4" cy="20.5" r="1.2" fill="#F28B6E" opacity="0.9"/>
  <circle cx="36" cy="19.1" r="1.95" fill="#E8735A" opacity="1"/>
  <circle cx="32.2" cy="23.6" r="1.5" fill="#D4533B" opacity="0.88"/>
  <circle cx="36" cy="24.4" r="1.65" fill="#E8735A" opacity="0.95"/>
  <circle cx="39.8" cy="23.2" r="1.2" fill="#F28B6E" opacity="0.9"/>
  <circle cx="33.7" cy="26.9" r="1.5" fill="#E8735A" opacity="0.92"/>
  <circle cx="37.5" cy="26.3" r="1.65" fill="#D4533B" opacity="0.9"/>
  <circle cx="35.1" cy="29.3" r="1.2" fill="#F28B6E" opacity="0.85"/>
  <circle cx="38.7" cy="29.7" r="1.05" fill="#E8735A" opacity="0.8"/>
  <circle cx="33" cy="31.6" r="1.5" fill="#E8735A" opacity="0.88"/>
  <circle cx="36.9" cy="32.6" r="1.2" fill="#D4533B" opacity="0.82"/>
  <circle cx="39.9" cy="31.9" r="1.05" fill="#F28B6E" opacity="0.78"/>
  <circle cx="34.5" cy="35.1" r="1.65" fill="#E8735A" opacity="0.85"/>
  <circle cx="38.4" cy="35.6" r="1.2" fill="#D4533B" opacity="0.8"/>
  <circle cx="28.8" cy="37.5" r="1.05" fill="#E8735A" opacity="0.7"/>
  <circle cx="27.7" cy="40.4" r="1.05" fill="#E8735A" opacity="0.65"/>
  <circle cx="27.3" cy="43.3" r="0.9" fill="#D4533B" opacity="0.6"/>
  <circle cx="28.6" cy="46.2" r="1.05" fill="#E8735A" opacity="0.55"/>
  <circle cx="31" cy="48.6" r="0.9" fill="#F28B6E" opacity="0.5"/>
  <circle cx="34" cy="50.1" r="1.05" fill="#E8735A" opacity="0.5"/>
  <circle cx="44.2" cy="37.5" r="1.05" fill="#E8735A" opacity="0.7"/>
  <circle cx="45.3" cy="40.4" r="1.05" fill="#E8735A" opacity="0.65"/>
  <circle cx="45.7" cy="43.3" r="0.9" fill="#D4533B" opacity="0.6"/>
  <circle cx="44.4" cy="46.2" r="1.05" fill="#E8735A" opacity="0.55"/>
  <circle cx="42" cy="48.6" r="0.9" fill="#F28B6E" opacity="0.5"/>
  <circle cx="39" cy="50.1" r="1.05" fill="#E8735A" opacity="0.5"/>
  <circle cx="36" cy="52.5" r="1.05" fill="#E8735A" opacity="0.45"/>
  <circle cx="36" cy="55.1" r="0.9" fill="#D4533B" opacity="0.4"/>
  <circle cx="36" cy="57.7" r="1.05" fill="#E8735A" opacity="0.35"/>
  <circle cx="32.1" cy="60.2" r="0.9" fill="#E8735A" opacity="0.3"/>
  <circle cx="34.5" cy="60.6" r="1.05" fill="#D4533B" opacity="0.3"/>
  <circle cx="37.5" cy="60.6" r="1.05" fill="#F28B6E" opacity="0.3"/>
  <circle cx="39.9" cy="60.2" r="0.9" fill="#E8735A" opacity="0.3"/>
  <circle cx="42.2" cy="16" r="0.6" fill="#E8735A" opacity="0.3"/>
  <circle cx="45.1" cy="18.9" r="0.45" fill="#F28B6E" opacity="0.2"/>
  <circle cx="29.2" cy="15" r="0.52" fill="#D4533B" opacity="0.25"/>
  <circle cx="46.1" cy="25.9" r="0.45" fill="#E8735A" opacity="0.15"/>
  <circle cx="25.3" cy="22" r="0.6" fill="#E8735A" opacity="0.2"/>
  <circle cx="48" cy="33.6" r="0.45" fill="#F28B6E" opacity="0.12"/>
  <circle cx="23.3" cy="35.5" r="0.52" fill="#D4533B" opacity="0.15"/>
  <circle cx="29.5" cy="60.6" r="0.45" fill="#E8735A" opacity="0.15"/>
  <circle cx="42.2" cy="61.6" r="0.45" fill="#E8735A" opacity="0.12"/>
  <text x="92" y="45" fill="#171717" font-family="SF Pro Display, Inter, Helvetica Neue, Arial, sans-serif" font-size="32" font-weight="650" letter-spacing="-0.7">MiniWhisper</text>
</svg>
